<?xml version="1.0" encoding="utf-8"?>
<svg viewBox="0 0 500 500" xmlns="http://www.w3.org/2000/svg">
  <rect x="0" y="0" width="500" height="500" style="fill: rgb(30, 30, 30);"/>
  <g transform="matrix(2.431347, 0, 0, 2.431347, -305.632568, -197.988556)" style="">
    <path d="M 140.858 208.701 L 140.858 140.101 C 140.858 139.254 141.128 138.521 141.668 137.901 C 142.201 137.288 142.841 136.981 143.588 136.981 L 150.428 136.981 C 151.175 136.981 151.808 137.288 152.328 137.901 C 152.855 138.521 153.118 139.254 153.118 140.101 L 153.118 200.941 L 179.578 200.941 C 180.425 200.941 181.068 201.211 181.508 201.751 C 181.948 202.284 182.168 202.941 182.168 203.721 L 182.168 209.101 C 182.168 209.848 181.948 210.488 181.508 211.021 C 181.068 211.561 180.425 211.831 179.578 211.831 L 143.548 211.831 C 142.795 211.831 142.158 211.521 141.638 210.901 C 141.118 210.281 140.858 209.548 140.858 208.701 Z" style="white-space: pre; fill: rgb(86, 156, 214);"/>
    <path d="M 179.819 228.392 L 179.819 159.792 C 179.819 158.945 180.089 158.212 180.629 157.592 C 181.162 156.979 181.802 156.672 182.549 156.672 L 189.389 156.672 C 190.136 156.672 190.769 156.979 191.289 157.592 C 191.816 158.212 192.079 158.945 192.079 159.792 L 192.079 220.632 L 239.534 220.584 C 240.381 220.584 241.024 220.854 241.464 221.394 C 241.904 221.927 242.124 222.584 242.124 223.364 L 242.124 228.744 C 242.124 229.491 241.904 230.131 241.464 230.664 C 241.024 231.204 240.381 231.474 239.534 231.474 L 182.509 231.522 C 181.756 231.522 181.119 231.212 180.599 230.592 C 180.079 229.972 179.819 229.239 179.819 228.392 Z" style="white-space: pre; fill: rgb(86, 156, 214);"/>
    <path d="M 233.157 228.294 L 233.157 167.214 L 215.527 167.214 C 214.687 167.214 213.964 166.947 213.357 166.414 C 212.757 165.874 212.457 165.214 212.457 164.434 L 212.457 159.304 C 212.457 158.557 212.757 157.914 213.357 157.374 C 213.964 156.841 214.687 156.574 215.527 156.574 L 263.777 156.574 C 264.624 156.574 265.267 156.841 265.707 157.374 C 266.14 157.914 266.357 158.574 266.357 159.354 L 266.357 164.484 C 266.357 165.231 266.13 165.874 265.677 166.414 C 265.224 166.947 264.574 167.214 263.727 167.214 L 245.467 167.214 L 245.467 228.294 C 245.467 229.141 245.197 229.874 244.657 230.494 C 244.117 231.114 243.474 231.424 242.727 231.424 L 235.847 231.424 C 235.094 231.424 234.457 231.114 233.937 230.494 C 233.417 229.874 233.157 229.141 233.157 228.294 Z" style="white-space: pre; fill: rgb(86, 156, 214);"/>
    <path d="M 259.475 227.058 L 259.475 160.748 C 259.475 159.615 259.858 158.625 260.625 157.778 C 261.392 156.931 262.458 156.508 263.825 156.508 L 279.305 156.508 C 292.192 156.508 301.892 159.698 308.405 166.078 C 314.585 172.198 317.675 180.938 317.675 192.298 C 317.675 204.438 314.202 213.985 307.255 220.938 C 300.302 227.885 290.692 231.358 278.425 231.358 L 263.825 231.358 C 262.458 231.358 261.392 230.928 260.625 230.068 C 259.858 229.201 259.475 228.198 259.475 227.058 Z M 280.765 167.248 L 278.325 167.248 C 277.252 167.248 275.055 167.298 271.735 167.398 L 271.735 220.568 L 279.695 220.718 L 279.985 220.718 C 292.585 220.718 300.332 215.281 303.225 204.408 C 304.172 200.888 304.645 196.988 304.645 192.708 C 304.645 188.428 304.132 184.735 303.105 181.628 C 302.078 178.521 300.555 175.891 298.535 173.738 C 294.468 169.411 288.545 167.248 280.765 167.248 Z" style="white-space: pre; fill: rgb(86, 156, 214);"/>
  </g>
  <path d="M 37.464 422.918 L 36.444 405.208 L 43.594 405.208 L 42.504 422.918 L 37.464 422.918 Z M 48.904 422.918 L 47.814 405.208 L 54.964 405.208 L 53.944 422.918 L 48.904 422.918 Z M 98.273 415.088 L 101.073 419.448 L 77.033 434.218 L 101.073 449.138 L 98.003 453.288 L 72.123 437.148 L 72.123 431.228 L 98.273 415.088 Z M 140.633 425.438 L 140.633 430.338 L 114.213 430.338 L 114.213 425.438 L 140.633 425.438 Z M 140.633 438.378 L 140.633 443.278 L 114.213 443.278 L 114.213 438.378 L 140.633 438.378 Z M 222.351 425.438 L 222.351 430.338 L 195.931 430.338 L 195.931 425.438 L 222.351 425.438 Z M 222.351 438.378 L 222.351 443.278 L 195.931 443.278 L 195.931 438.378 L 222.351 438.378 Z M 263.21 425.438 L 263.21 430.338 L 236.79 430.338 L 236.79 425.438 L 263.21 425.438 Z M 263.21 438.378 L 263.21 443.278 L 236.79 443.278 L 236.79 438.378 L 263.21 438.378 Z M 304.07 425.438 L 304.07 430.338 L 277.65 430.338 L 277.65 425.438 L 304.07 425.438 Z M 304.07 438.378 L 304.07 443.278 L 277.65 443.278 L 277.65 438.378 L 304.07 438.378 Z M 360.928 415.088 L 387.088 431.298 L 387.088 437.148 L 361.208 453.288 L 358.138 449.068 L 382.178 434.218 L 358.138 419.448 L 360.928 415.088 Z M 426.648 425.438 L 426.648 430.338 L 400.228 430.338 L 400.228 425.438 L 426.648 425.438 Z M 426.648 438.378 L 426.648 443.278 L 400.228 443.278 L 400.228 438.378 L 426.648 438.378 Z M 446.057 422.918 L 445.037 405.208 L 452.187 405.208 L 451.097 422.918 L 446.057 422.918 Z M 457.497 422.918 L 456.407 405.208 L 463.557 405.208 L 462.537 422.918 L 457.497 422.918 Z" style="fill: rgb(206, 145, 120); white-space: pre;"/>
  <g transform="matrix(1, 0, 0, 1, -8.630974, 0)">
    <g transform="matrix(1, 0, 0, 1, 0, 0.071982)">
      <polyline style="fill: rgb(216, 216, 216); stroke: rgb(0, 0, 0); paint-order: fill; stroke-width: 0px;" points="103.807 61.872 135.86 75.537 133.741 80.679 95.534 64.392 95.685 57.459 133.616 40.905 135.687 47.04 103.7 61.273 103.585 61.982 103.585 61.982"/>
      <polyline style="fill: rgb(216, 216, 216); stroke: rgb(0, 0, 0);" points="96.307 74.587 93.945 79.721 132.004 96.998 134.643 91.069 96.45 74.301"/>
    </g>
    <g transform="matrix(1, 0, 0, 1, 0, 0.071982)">
      <rect x="204.656" y="52.6" width="108.189" height="5.859" style="fill: rgb(216, 216, 216);"/>
      <rect x="204.656" y="65.6" width="108.189" height="5.859" style="fill: rgb(216, 216, 216);"/>
      <rect x="204.656" y="78.6" width="108.189" height="5.859" style="fill: rgb(216, 216, 216);"/>
    </g>
    <g transform="matrix(-1, 0, 0, 1, 517.261963, 0.071982)">
      <polyline style="fill: rgb(216, 216, 216); stroke: rgb(0, 0, 0); paint-order: fill; stroke-width: 0px;" points="103.807 61.872 135.86 75.537 133.741 80.679 95.534 64.392 95.685 57.459 133.616 40.905 135.687 47.04 103.7 61.273 103.585 61.982 103.585 61.982"/>
      <polyline style="fill: rgb(216, 216, 216); stroke: rgb(0, 0, 0);" points="96.307 74.587 93.945 79.721 132.004 96.998 134.643 91.069 96.45 74.301"/>
    </g>
  </g>
</svg>